<?xml version="1.0" encoding="UTF-8" standalone="no" ?>
<!DOCTYPE svg PUBLIC "-//W3C//DTD SVG 1.1//EN" "http://www.w3.org/Graphics/SVG/1.1/DTD/svg11.dtd">
<svg xmlns="http://www.w3.org/2000/svg" xmlns:xlink="http://www.w3.org/1999/xlink" version="1.1" width="1920" height="768" viewBox="0 0 1920 768" xml:space="preserve">
<desc>Created with Fabric.js 5.2.4</desc>
<defs>
</defs>
<g transform="matrix(1 0 0 1 960 384)" id="e2f60e7c-f5e9-4fd4-b031-1b54044e757b"  >
<rect style="stroke: none; stroke-width: 1; stroke-dasharray: none; stroke-linecap: butt; stroke-dashoffset: 0; stroke-linejoin: miter; stroke-miterlimit: 4; fill: rgb(255,255,255); fill-rule: nonzero; opacity: 1; visibility: hidden;" vector-effect="non-scaling-stroke"  x="-960" y="-384" rx="0" ry="0" width="1920" height="768" />
</g>
<g transform="matrix(Infinity NaN NaN Infinity 0 0)" id="1eccad9a-7e40-463c-bacf-35c0994190c2"  >
</g>
<g transform="matrix(0.98 0 0 0.98 960 384)"  >
<g style="" vector-effect="non-scaling-stroke"   >
		<g transform="matrix(1 0 0 1 -910 -330)"  >
<rect style="stroke: none; stroke-width: 1; stroke-dasharray: none; stroke-linecap: butt; stroke-dashoffset: 0; stroke-linejoin: miter; stroke-miterlimit: 4; fill: rgb(255,255,255); fill-opacity: 0; fill-rule: nonzero; opacity: 1;" vector-effect="non-scaling-stroke"  x="-50" y="-50" rx="0" ry="0" width="100" height="100" />
</g>
		<g transform="matrix(1 0 0 1 0 0)"  >
<rect style="stroke: none; stroke-width: 1; stroke-dasharray: none; stroke-linecap: butt; stroke-dashoffset: 0; stroke-linejoin: miter; stroke-miterlimit: 4; fill: rgb(255,255,255); fill-rule: nonzero; opacity: 1; visibility: hidden;" vector-effect="non-scaling-stroke"  x="-960" y="-380" rx="0" ry="0" width="1920" height="760" />
</g>
		<g transform="matrix(1 0 0 1 -274.17 -2.99)"  >
<path style="stroke: none; stroke-width: 1; stroke-dasharray: none; stroke-linecap: butt; stroke-dashoffset: 0; stroke-linejoin: miter; stroke-miterlimit: 4; fill: rgb(0,0,0); fill-rule: nonzero; opacity: 1;" vector-effect="non-scaling-stroke"  transform=" translate(-874.99, -327.61)" d="M 988.834961 338.895172 C 984.538513 380.701172 980.271484 422.050629 975.981812 463.397705 C 974.800049 474.788971 973.550598 486.173218 972.310059 497.767639 C 948.333679 497.767639 924.561523 497.767639 900.133911 497.767639 C 891.970459 442.065399 883.773682 386.135529 875.576904 330.205658 C 875.200867 330.171387 874.82489 330.137085 874.448914 330.102783 C 866.251892 385.988953 858.054871 441.875122 849.843323 497.860626 C 825.793884 497.860626 801.994934 497.860626 777.638611 497.860626 C 765.950439 384.480927 754.269287 271.169403 742.551025 157.497894 C 764.09668 157.497894 785.311157 157.497894 807.099182 157.497894 C 810.119873 195.684875 813.101562 233.912064 816.179016 272.131561 C 819.246277 310.224365 822.409607 348.309418 825.530823 386.397888 C 825.940857 386.398468 826.350891 386.399048 826.760925 386.399597 C 835.555176 322.972534 844.349487 259.545441 853.185242 195.81871 C 867.755737 195.81871 882.173523 195.81871 896.825256 195.81871 C 905.686279 259.779572 914.551453 323.770142 923.416565 387.760681 C 923.744202 387.774139 924.071838 387.787567 924.399475 387.800995 C 930.586121 311.041595 936.772827 234.282181 942.972412 157.362793 C 964.465454 157.362793 985.570068 157.362793 1007.425354 157.362793 C 1001.219421 217.878372 995.037659 278.158051 988.834961 338.895172 z" stroke-linecap="round" />
</g>
		<g transform="matrix(1 0 0 1 -806.79 0)"  >
<path style="stroke: none; stroke-width: 1; stroke-dasharray: none; stroke-linecap: butt; stroke-dashoffset: 0; stroke-linejoin: miter; stroke-miterlimit: 4; fill: rgb(0,0,0); fill-rule: nonzero; opacity: 1;" vector-effect="non-scaling-stroke"  transform=" translate(-220.19, -340.38)" d="M 193.999146 144.178741 C 194.450943 139.749268 194.712265 135.752213 195.384979 131.825638 C 198.528107 113.479828 218.551575 103.002029 234.426651 111.541122 C 242.368149 115.812798 246.547836 123.255203 246.8237 131.879333 C 247.327744 147.636093 246.822433 163.427444 246.633728 179.20311 C 246.538284 187.182037 246.055161 195.158112 246.048782 203.135712 C 246.044296 208.742447 247.362106 209.617432 252.086014 206.890137 C 260.98877 201.750198 269.759338 196.365585 278.418182 190.822311 C 293.541992 181.140198 308.339233 170.933426 323.651093 161.563919 C 336.880737 153.468521 352.398224 160.610016 354.362488 175.192001 C 355.324951 182.336884 351.516815 187.949936 347.592407 193.294586 C 340.312714 203.208771 330.619781 210.503006 320.790924 217.699112 C 304.443695 229.667587 288.31073 241.928741 272.088745 254.068283 C 271.822845 254.267273 271.56134 254.475006 271.316956 254.699509 C 263.26181 262.098755 263.182831 264.541656 272.008453 270.920807 C 290.624878 284.376678 309.45578 297.535461 328.159821 310.870636 C 338.411377 318.179535 348.847137 325.331146 355.615112 336.382568 C 360.132629 343.759277 363.024994 351.336578 357.492737 359.542603 C 351.328308 368.686279 344.937225 377.138947 331.87381 375.932526 C 323.692169 375.17691 316.310791 372.587708 309.499634 368.378815 C 290.562317 356.676544 271.763947 344.74939 252.909836 332.912506 C 252.352112 332.562317 251.798904 332.200928 251.219025 331.890686 C 245.609497 328.889282 243.786331 329.661224 243.218948 335.996185 C 241.988281 349.736725 241.682053 363.586273 239.885635 377.244995 C 234.507889 418.133667 236.422882 459.280853 234.797119 500.29834 C 234.112457 517.571838 233.11203 534.83374 232.114777 552.092834 C 231.944229 555.044434 231.232727 557.998779 230.482254 560.876526 C 228.208984 569.593567 219.673706 574.571838 211.29985 571.141174 C 204.808807 568.481812 198.459747 564.926331 192.908569 560.651184 C 184.55838 554.22052 184.062759 544.441833 184.177231 534.801208 C 184.598328 499.338531 185.046539 463.87616 185.490814 428.413727 C 185.709793 410.933655 185.980972 393.454163 186.157562 375.973694 C 186.32077 359.817108 186.390198 343.659576 186.498016 327.502441 C 186.50885 325.880005 186.499481 324.257477 186.499481 321.449219 C 183.308212 322.642975 180.658157 323.088867 178.655075 324.471832 C 165.400116 333.62323 152.543106 343.376312 139.028763 352.117554 C 130.471802 357.652283 121.273796 362.436646 111.850273 366.309082 C 105.196358 369.043427 98.530212 367.012299 93.289162 361.365082 C 87.982018 355.646667 84.439919 349.235077 87.75338 341.63324 C 89.513863 337.594299 92.859131 333.735657 96.443741 331.08844 C 114.333107 317.87735 132.560242 305.124481 150.622681 292.146515 C 157.358475 287.306824 164.143066 282.507355 170.577469 277.285461 C 174.959778 273.728943 174.894638 271.487366 170.704391 267.489532 C 162.284393 259.456085 153.890244 251.368195 145.062241 243.796127 C 131.58493 232.236206 117.395096 221.487854 104.20269 209.622314 C 96.723366 202.895218 90.282204 194.89711 84.08989 186.915634 C 81.746284 183.894897 81.183304 179.366119 80.26075 175.419067 C 79.744476 173.210266 80.409843 170.751038 80.105606 168.462769 C 77.984406 152.508942 89.191994 148.011902 101.880112 145.968613 C 116.538498 143.608017 128.240356 149.938461 139.444397 159.122787 C 154.749069 171.668518 171.059799 182.987335 186.957443 194.807648 C 187.454224 195.177017 188.152145 195.275894 189.422852 195.749084 C 193.0578 178.709366 192.203537 161.541016 193.999146 144.178741 z" stroke-linecap="round" />
</g>
		<g transform="matrix(1 0 0 1 2.75 38.89)"  >
<path style="stroke: none; stroke-width: 1; stroke-dasharray: none; stroke-linecap: butt; stroke-dashoffset: 0; stroke-linejoin: miter; stroke-miterlimit: 4; fill: rgb(0,0,0); fill-rule: nonzero; opacity: 1;" vector-effect="non-scaling-stroke"  transform=" translate(-1151.23, -369.38)" d="M 1207.522217 486.497559 C 1199.80835 479.285278 1194.875977 470.811432 1192.195923 459.96167 C 1190.489136 462.813538 1189.228638 464.942108 1187.946899 467.057739 C 1174.614502 489.063232 1154.057129 499.460052 1129.44043 502.746796 C 1110.717773 505.246613 1092.270508 503.490051 1074.609131 496.369171 C 1042.331055 483.354919 1025.464722 456.183441 1029.521606 420.676178 C 1032.860596 391.452026 1051.267578 374.884674 1076.554688 364.005554 C 1098.6698 354.490997 1122.491943 351.491516 1145.695068 346.15036 C 1158.43042 343.218811 1171.227295 340.554413 1183.959717 337.777527 C 1185.360229 318.186005 1178.603027 292.565796 1155.415527 288.479645 C 1132.687622 284.474426 1107.522705 288.81076 1098.900269 322.107025 C 1076.818237 320.910095 1054.640869 319.708008 1032.086426 318.485474 C 1035.616455 299.749847 1043.188477 283.42926 1055.728149 269.629028 C 1074.472534 249.000397 1098.304443 238.621155 1125.718262 235.870453 C 1146.110962 233.824265 1166.286133 235.02742 1186.013428 240.838974 C 1216.172607 249.723709 1234.912476 269.982788 1244.039307 299.686127 C 1248.428101 313.969757 1249.665894 328.691956 1249.771118 343.490448 C 1249.979492 372.815674 1249.827637 402.143372 1249.842896 431.470062 C 1249.843994 433.632812 1249.825073 435.816925 1250.100708 437.954346 C 1251.002075 444.944122 1254.819824 448.592255 1261.852539 449.014923 C 1265.632812 449.242126 1269.43811 449.055267 1273.528809 449.055267 C 1273.528809 465.526611 1273.528809 481.448822 1273.528809 498.023315 C 1250.477173 501.190277 1227.740479 502.569214 1207.522217 486.497559 M 1117.627563 398.98056 C 1106.532104 402.613831 1098.511353 409.000885 1096.428467 421.345276 C 1093.881836 436.438477 1100.251343 449.273651 1113.77832 452.866852 C 1131.574219 457.594025 1149.073364 455.557892 1164.215332 444.761139 C 1185.376831 429.672211 1185.208862 406.9505 1184.256592 383.788574 C 1177.447754 385.300293 1171.143433 386.661469 1164.857666 388.103302 C 1149.369385 391.655914 1133.889648 395.245483 1117.627563 398.98056 z" stroke-linecap="round" />
</g>
		<g transform="matrix(1 0 0 1 832.76 35.91)"  >
<path style="stroke: none; stroke-width: 1; stroke-dasharray: none; stroke-linecap: butt; stroke-dashoffset: 0; stroke-linejoin: miter; stroke-miterlimit: 4; fill: rgb(0,0,0); fill-rule: nonzero; opacity: 1;" vector-effect="non-scaling-stroke"  transform=" translate(-1979.17, -366.41)" d="M 1880.030151 240.833359 C 1896.501709 240.833359 1912.477539 240.833359 1929.495361 240.833359 C 1929.495361 255.386536 1929.495361 269.715454 1929.495361 284.044342 C 1929.949097 284.104187 1930.402832 284.164032 1930.856567 284.223877 C 1931.412109 283.295837 1932.064697 282.411835 1932.509399 281.43338 C 1947.289673 248.907654 1973.842896 235.459274 2008.206909 235.055069 C 2025.853638 234.847488 2042.566895 238.356476 2056.760254 249.775208 C 2072.350098 262.317322 2080.897949 279.176697 2084.638428 298.307648 C 2086.950439 310.132965 2088.255859 322.337646 2088.342529 334.384094 C 2088.727295 387.880249 2088.508789 441.380737 2088.508545 494.879639 C 2088.508545 495.695129 2088.508545 496.51062 2088.508545 497.661316 C 2066.703369 497.661316 2045.171631 497.661316 2023.168213 497.661316 C 2023.168213 495.803314 2023.168213 494.018463 2023.168213 492.233582 C 2023.168213 442.234589 2023.201172 392.235596 2023.141968 342.236664 C 2023.128906 331.222534 2021.676758 320.465271 2017.13269 310.222687 C 2009.591797 293.225128 1993.015869 288.411835 1977.547729 290.528534 C 1950.80896 294.187561 1935.538574 316.428284 1935.188965 341.69635 C 1934.495239 391.85025 1934.887939 442.019196 1934.832031 492.181915 C 1934.830078 493.971069 1934.831787 495.760254 1934.831787 497.771454 C 1912.954346 497.771454 1891.510864 497.771454 1869.778564 497.771454 C 1869.778564 412.347443 1869.778564 326.921783 1869.778564 240.833359 C 1873.02124 240.833359 1876.277832 240.833359 1880.030151 240.833359 z" stroke-linecap="round" />
</g>
		<g transform="matrix(1 0 0 1 563.09 38.74)"  >
<path style="stroke: none; stroke-width: 1; stroke-dasharray: none; stroke-linecap: butt; stroke-dashoffset: 0; stroke-linejoin: miter; stroke-miterlimit: 4; fill: rgb(0,0,0); fill-rule: nonzero; opacity: 1;" vector-effect="non-scaling-stroke"  transform=" translate(-1710.17, -369.23)" d="M 1797 240.833176 C 1807.124634 240.833176 1816.749268 240.833176 1826.599731 240.833176 C 1826.599731 258.682495 1826.599731 276.09494 1826.599731 294.000824 C 1819.15332 294.000824 1811.868408 293.905243 1804.586914 294.021027 C 1790.118164 294.251099 1775.540527 293.575806 1761.209106 295.129883 C 1738.426025 297.600342 1724.689209 312.133423 1721.526611 335.027618 C 1720.800537 340.28302 1720.246826 345.610443 1720.225952 350.907135 C 1720.104858 381.572937 1720.165039 412.239471 1720.176147 442.905762 C 1720.176392 443.865417 1720.309204 444.825012 1720.409668 446.183899 C 1746.405762 446.183899 1772.161133 446.183899 1798.210815 446.183899 C 1798.210815 463.53363 1798.210815 480.466095 1798.210815 497.700562 C 1730.121216 497.700562 1662.054932 497.700562 1593.739258 497.700562 C 1593.739258 480.75415 1593.739258 463.811279 1593.739258 446.452087 C 1613.969482 446.452087 1634.205322 446.452087 1654.803955 446.452087 C 1654.803955 394.968353 1654.803955 343.897369 1654.803955 292.358459 C 1634.719971 292.358459 1614.466797 292.358459 1593.854004 292.358459 C 1593.854004 275.013397 1593.854004 258.131348 1593.854004 241.040009 C 1630.192139 241.040009 1666.460938 241.040009 1703.167114 241.040009 C 1704.350464 256.678406 1705.524292 272.193146 1706.750366 288.396057 C 1710.262573 280.573669 1712.804565 273.11319 1716.746216 266.485168 C 1726.853394 249.489655 1742.870117 242.075714 1762.014038 241.101257 C 1773.484253 240.51738 1785.003052 240.890289 1797 240.833176 z" stroke-linecap="round" />
</g>
		<g transform="matrix(1 0 0 1 286.37 38.82)"  >
<path style="stroke: none; stroke-width: 1; stroke-dasharray: none; stroke-linecap: butt; stroke-dashoffset: 0; stroke-linejoin: miter; stroke-miterlimit: 4; fill: rgb(0,0,0); fill-rule: nonzero; opacity: 1;" vector-effect="non-scaling-stroke"  transform=" translate(-1434.14, -369.31)" d="M 1329.021118 240.833176 C 1361.833984 240.833176 1394.151245 240.833176 1427.143188 240.833176 C 1428.344604 256.622559 1429.533936 272.252533 1430.694702 287.507996 C 1434.780151 279.36795 1438.142456 270.696808 1443.150269 263.111816 C 1452.840454 248.434219 1467.755981 241.879288 1484.744019 241.292053 C 1506.538696 240.538666 1528.37915 241.108978 1550.516113 241.108978 C 1550.516113 258.461945 1550.516113 275.880157 1550.516113 294.000824 C 1548.870972 294.000824 1547.118042 293.996338 1545.36499 294.001526 C 1527.201172 294.055542 1509.02124 293.661621 1490.878784 294.312347 C 1477.048218 294.808411 1464.468994 299.280609 1455.392334 310.635345 C 1447.806396 320.125061 1444.787476 331.392609 1444.630005 343.153748 C 1444.179199 376.806549 1444.284302 410.466827 1444.181519 444.124176 C 1444.180054 444.599121 1444.318237 445.074493 1444.456543 445.975891 C 1470.227905 445.975891 1495.977661 445.975891 1522.117188 445.975891 C 1522.117188 463.466431 1522.117188 480.525116 1522.117188 497.793762 C 1454.127319 497.793762 1386.178223 497.793762 1317.859619 497.793762 C 1317.859619 480.776428 1317.859619 463.73584 1317.859619 446.289429 C 1338.103394 446.289429 1358.348755 446.289429 1378.87915 446.289429 C 1378.87915 394.821381 1378.87915 343.755646 1378.87915 292.254974 C 1358.549561 292.254974 1338.282227 292.254974 1317.755005 292.254974 C 1317.755005 275.050751 1317.755005 258.278473 1317.755005 240.833176 C 1321.349365 240.833176 1324.937378 240.833176 1329.021118 240.833176 z" stroke-linecap="round" />
</g>
</g>
</g>
</svg>